<svg xmlns="http://www.w3.org/2000/svg" viewBox="0 0 740 420" font-family="Helvetica Neue, Helvetica, Arial, sans-serif">
  <rect width="740" height="420" fill="#fff"/>
  <text x="16" y="22" font-size="10" fill="#475569" letter-spacing="1.2">SYSTEM ARCHITECTURE - COMPONENT + DATA FLOW</text>
  <rect x="20" y="40" width="160" height="360" rx="8" fill="#0f172a"/>
  <text x="100" y="68" text-anchor="middle" font-size="11" fill="#fff" font-weight="600">OPERATOR UI</text>
  <text x="100" y="86" text-anchor="middle" font-size="8" fill="#94a3b8">ui/ - Next.js :3000</text>
  <rect x="35" y="100" width="130" height="48" rx="4" fill="#1e293b"/>
  <text x="100" y="122" text-anchor="middle" font-size="9" fill="#007AFF">Stage 65%</text>
  <text x="100" y="138" text-anchor="middle" font-size="8" fill="#64748b">calibration-surface</text>
  <rect x="35" y="158" width="130" height="48" rx="4" fill="#1e293b"/>
  <text x="100" y="180" text-anchor="middle" font-size="9" fill="#FF9500">Dock 35%</text>
  <text x="100" y="196" text-anchor="middle" font-size="8" fill="#64748b">ledger - composer</text>
  <rect x="35" y="216" width="130" height="36" rx="4" fill="#334155"/>
  <text x="100" y="238" text-anchor="middle" font-size="9" fill="#e2e8f0">Cmd+K palette</text>
  <rect x="35" y="262" width="130" height="36" rx="4" fill="#334155"/>
  <text x="100" y="284" text-anchor="middle" font-size="9" fill="#e2e8f0">lib/api.ts</text>
  <text x="100" y="330" text-anchor="middle" font-size="8" fill="#64748b">poll 6.5s - SSE jobs</text>
  <text x="100" y="348" text-anchor="middle" font-size="8" fill="#64748b">Sonner - motion</text>
  <text x="100" y="380" text-anchor="middle" font-size="8" fill="#475569">progressive blur dock</text>
  <rect x="220" y="40" width="200" height="360" rx="8" fill="#f8fafc" stroke="#475569" stroke-width="1.5"/>
  <text x="320" y="68" text-anchor="middle" font-size="11" fill="#0f172a" font-weight="600">CONTROL PLANE</text>
  <text x="320" y="86" text-anchor="middle" font-size="8" fill="#475569">FastAPI - api/server.py :8000</text>
  <rect x="235" y="105" width="170" height="26" rx="3" fill="#007AFF"/><text x="320" y="122" text-anchor="middle" font-size="8.5" fill="#fff">POST /goals</text>
<rect x="235" y="138" width="170" height="26" rx="3" fill="#007AFF"/><text x="320" y="155" text-anchor="middle" font-size="8.5" fill="#fff">POST /calibrate</text>
<rect x="235" y="171" width="170" height="26" rx="3" fill="#007AFF"/><text x="320" y="188" text-anchor="middle" font-size="8.5" fill="#fff">POST /circuit/bell</text>
<rect x="235" y="204" width="170" height="26" rx="3" fill="#475569"/><text x="320" y="221" text-anchor="middle" font-size="8.5" fill="#fff">GET /device/state</text>
<rect x="235" y="237" width="170" height="26" rx="3" fill="#475569"/><text x="320" y="254" text-anchor="middle" font-size="8.5" fill="#fff">GET /device/detuning/{q}</text>
<rect x="235" y="270" width="170" height="26" rx="3" fill="#475569"/><text x="320" y="287" text-anchor="middle" font-size="8.5" fill="#fff">GET /jobs / traces / metrics</text>
<rect x="235" y="303" width="170" height="26" rx="3" fill="#475569"/><text x="320" y="320" text-anchor="middle" font-size="8.5" fill="#fff">GET /sse/jobs/{id}</text>
<rect x="235" y="336" width="170" height="26" rx="3" fill="#FF9500"/><text x="320" y="353" text-anchor="middle" font-size="8.5" fill="#fff">POST /demo/* guardrails</text>
  <rect x="460" y="40" width="250" height="360" rx="8" fill="#fff7ed" stroke="#FF9500" stroke-width="1.5"/>
  <text x="585" y="68" text-anchor="middle" font-size="11" fill="#FF9500" font-weight="600">RUNTIME SEAM</text>
  <text x="585" y="86" text-anchor="middle" font-size="8" fill="#475569">Orchestrator + Adapter</text>
  <rect x="480" y="105" width="210" height="55" rx="5" fill="#475569"/>
  <text x="585" y="128" text-anchor="middle" font-size="10" fill="#fff" font-weight="600">Orchestrator</text>
  <text x="585" y="146" text-anchor="middle" font-size="8" fill="#cbd5e1">5 tools - ToolTrace buffer</text>
  <rect x="480" y="170" width="210" height="55" rx="5" fill="#007AFF"/>
  <text x="585" y="193" text-anchor="middle" font-size="10" fill="#fff" font-weight="600">CalibrationService</text>
  <text x="585" y="211" text-anchor="middle" font-size="8" fill="#dbeafe">threshold 0.88 - max 60</text>
  <rect x="480" y="240" width="210" height="70" rx="5" fill="#FF9500"/>
  <text x="585" y="265" text-anchor="middle" font-size="10" fill="#fff" font-weight="600">QPUAdapter</text>
  <text x="585" y="283" text-anchor="middle" font-size="8" fill="#ffedd5">NoisySimulator (default)</text>
  <text x="585" y="297" text-anchor="middle" font-size="8" fill="#ffedd5">or ConductorShaped stub</text>
  <rect x="480" y="325" width="210" height="50" rx="5" fill="#0f172a"/>
  <text x="585" y="348" text-anchor="middle" font-size="10" fill="#fff" font-weight="600">InMemoryJobStore</text>
  <text x="585" y="364" text-anchor="middle" font-size="8" fill="#94a3b8">non-durable - max 4096</text>
  <path d="M180 200 H220" stroke="#0f172a" stroke-width="1.5"/>
  <path d="M420 200 H460" stroke="#0f172a" stroke-width="1.5"/>
  <text x="200" y="192" font-size="8" fill="#475569">HTTP</text>
</svg>